<svg width="16" height="16" viewBox="0 0 16 16" fill="none" xmlns="http://www.w3.org/2000/svg">
<path fill-rule="evenodd" clip-rule="evenodd" d="M5.05521 1.52908C5.27131 1.50135 5.49054 1.54542 5.67915 1.65449C5.86692 1.76308 6.01398 1.93011 6.09793 2.13005L7.35236 5.05709C7.35254 5.0575 7.35273 5.05792 7.35291 5.05834C7.41785 5.20843 7.445 5.37217 7.43195 5.5352C7.41887 5.69869 7.36578 5.85645 7.27736 5.99459L7.27407 5.99973L6.23227 7.58419C6.69722 8.54314 7.47269 9.31674 8.43274 9.77936L8.43476 9.778L9.99604 8.73507C10.1346 8.64151 10.2945 8.58442 10.461 8.56909C10.6275 8.55375 10.7952 8.58067 10.9485 8.64735C10.9491 8.64762 10.9497 8.64789 10.9504 8.64817L13.8702 9.90219C14.07 9.98616 14.237 10.1332 14.3455 10.3209C14.4546 10.5095 14.4987 10.7287 14.4709 10.9448C14.3628 11.789 13.9507 12.5648 13.3119 13.1272C12.6731 13.6895 11.8512 13.9998 11.0001 14C8.61316 14 6.32387 13.0518 4.63604 11.364C2.94821 9.67616 2 7.38697 2 5.00002C2.00019 4.14894 2.31049 3.32697 2.87283 2.68813C3.43514 2.04933 4.21109 1.63727 5.05521 1.52908ZM5.78125 7.80002L5.33024 8.01586C5.2564 7.86157 5.22337 7.69091 5.23431 7.52021C5.24525 7.34951 5.2998 7.18446 5.39274 7.04086L5.3947 7.03783L6.43512 5.45542L6.43417 5.45323L5.17793 2.52198C4.5767 2.60013 4.02411 2.89369 3.62345 3.34886C3.2218 3.80515 3.00016 4.39214 3 5.00002M5.78125 7.80002L5.33124 8.01794C5.89498 9.18212 6.83636 10.1211 8.00199 10.6818L8.00477 10.6832C8.16172 10.7575 8.33531 10.7896 8.50846 10.7765C8.68117 10.7634 8.8475 10.7056 8.99116 10.6089C8.99153 10.6087 8.9919 10.6084 8.99227 10.6082L10.5527 9.56579L13.4777 10.8219L13.4785 10.8223C13.4003 11.4235 13.1063 11.9759 12.6512 12.3766C12.1949 12.7782 11.6079 12.9999 11 13M3 5.00002C3.00003 7.12171 3.84288 9.15661 5.34315 10.6569C6.84341 12.1571 8.87831 13 11 13" fill="#676767"/>
</svg>
